<?xml version="1.0" encoding="iso-8859-1"?>
<!-- Uploaded to: SVG Repo, www.svgrepo.com, Generator: SVG Repo Mixer Tools -->
<svg version="1.1" id="Layer_1" xmlns="http://www.w3.org/2000/svg" xmlns:xlink="http://www.w3.org/1999/xlink" 
	 viewBox="0 0 512 512" xml:space="preserve">
<path style="fill:#6D992D;" d="M395.13,378.435h-33.391c-9.217,0-16.696-7.473-16.696-16.696c0-64.441,52.424-116.87,116.87-116.87
	h33.391c9.217,0,16.696,7.473,16.696,16.696C512,326.006,459.576,378.435,395.13,378.435z"/>
<path style="fill:#88CC2A;" d="M361.739,512h-66.783c-9.217,0-16.696-7.473-16.696-16.696V194.783
	c0-9.223,7.479-16.696,16.696-16.696h66.783c9.217,0,16.696,7.473,16.696,16.696v300.522C378.435,504.527,370.956,512,361.739,512z"
	/>
<g>
	<path style="fill:#7FB335;" d="M361.739,178.087h-33.391V512h33.391c9.217,0,16.696-7.473,16.696-16.696V194.783
		C378.435,185.56,370.956,178.087,361.739,178.087z"/>
	<path style="fill:#7FB335;" d="M150.261,178.087H116.87C52.424,178.087,0,125.658,0,61.217c0-9.223,7.479-16.696,16.696-16.696
		h33.391c64.445,0,116.87,52.429,116.87,116.87C166.957,170.614,159.478,178.087,150.261,178.087z"/>
	<path style="fill:#7FB335;" d="M150.261,378.435H116.87C52.424,378.435,0,326.006,0,261.565c0-9.223,7.479-16.696,16.696-16.696
		h33.391c64.445,0,116.87,52.429,116.87,116.87C166.957,370.962,159.478,378.435,150.261,378.435z"/>
</g>
<path style="fill:#88CC2A;" d="M217.043,512h-66.783c-9.217,0-16.696-7.473-16.696-16.696V16.696C133.565,7.473,141.044,0,150.261,0
	h66.783c9.217,0,16.696,7.473,16.696,16.696v478.609C233.739,504.527,226.261,512,217.043,512z"/>
<path style="fill:#7FB335;" d="M217.043,0h-33.391v512h33.391c9.217,0,16.696-7.473,16.696-16.696V16.696
	C233.739,7.473,226.261,0,217.043,0z"/>
<path style="fill:#A6673A;" d="M428.522,512H83.478c-9.217,0-16.696-7.473-16.696-16.696s7.479-16.696,16.696-16.696h345.043
	c9.217,0,16.696,7.473,16.696,16.696S437.739,512,428.522,512z"/>
<path style="fill:#99522E;" d="M428.522,478.609H256V512h172.522c9.217,0,16.696-7.473,16.696-16.696
	S437.739,478.609,428.522,478.609z"/>
<rect x="133.565" y="345.043" style="fill:#99E62F;" width="100.174" height="33.391"/>
<rect x="183.652" y="345.043" style="fill:#88CC2A;" width="50.087" height="33.391"/>
<rect x="133.565" y="144.696" style="fill:#99E62F;" width="100.174" height="33.391"/>
<rect x="183.652" y="144.696" style="fill:#88CC2A;" width="50.087" height="33.391"/>
<rect x="278.261" y="345.043" style="fill:#A6E42E;" width="100.174" height="33.391"/>
<rect x="328.348" y="345.043" style="fill:#88CC2A;" width="50.087" height="33.391"/>
</svg>