<?xml version="1.0" encoding="UTF-8"?>
<svg version="1.1" xmlns="http://www.w3.org/2000/svg" width="1254" height="1254">
<path d="M0 0 C413.82 0 827.64 0 1254 0 C1254 413.82 1254 827.64 1254 1254 C840.18 1254 426.36 1254 0 1254 C0 840.18 0 426.36 0 0 Z " fill="#FEFDFE" transform="translate(0,0)"/>
<path d="M0 0 C3.48718263 2.89312719 5.29697182 5.33105163 6.28125 9.8125 C6.9596607 17.85166679 4.13155801 24.18442383 1.04516602 31.40136719 C-1.65391679 37.77767613 -3.76054679 44.15128235 -5.546875 50.83984375 C-5.77648926 51.69368652 -6.00610352 52.5475293 -6.24267578 53.42724609 C-9.32073902 65.23737168 -11.68191606 77.10972808 -13.234375 89.21484375 C-13.35894073 90.1837706 -13.35894073 90.1837706 -13.48602295 91.17227173 C-16.68527769 116.40666828 -18.01001238 141.84828823 -19.05938721 167.2492981 C-20.7702394 208.55064382 -24.59079061 249.51821377 -30.234375 290.46484375 C-30.41656342 291.80614426 -30.59869806 293.14745208 -30.78076172 294.48876953 C-40.66268761 365.98977038 -67.51905038 439.00114148 -117.234375 492.46484375 C-118.3635962 493.77371377 -119.4887344 495.08611965 -120.609375 496.40234375 C-127.60597547 504.39845857 -135.14653104 511.64410999 -143.46875 518.24609375 C-145.26226024 519.68495507 -147.02554935 521.1626497 -148.75 522.68359375 C-169.19350738 540.61649496 -193.75848624 553.60301893 -217.83837891 565.91430664 C-234.01897815 574.1886042 -248.30648993 582.5959004 -261.234375 595.46484375 C-262.19730469 596.37556641 -262.19730469 596.37556641 -263.1796875 597.3046875 C-281.10818252 615.69181843 -289.74693676 647.06398374 -290.31640625 672.06640625 C-290.28933594 672.85789062 -290.26226563 673.649375 -290.234375 674.46484375 C-289.23470703 673.33949219 -289.23470703 673.33949219 -288.21484375 672.19140625 C-272.63413194 654.8092908 -254.89872409 641.29341838 -234.234375 630.46484375 C-233.09871094 629.85125 -231.96304687 629.23765625 -230.79296875 628.60546875 C-207.46868941 616.38927609 -177.83975497 606.85058474 -151.234375 608.46484375 C-151.26917969 607.92859375 -151.30398438 607.39234375 -151.33984375 606.83984375 C-152.32703994 578.25816361 -136.69676233 550.52293711 -117.85839844 530.16113281 C-101.46754723 513.04092323 -80.24196914 501.70026739 -57.609375 495.27734375 C-56.78195801 495.03902832 -55.95454102 494.80071289 -55.10205078 494.55517578 C-37.77829416 489.90877014 -20.5170626 488.97764636 -2.65527344 489.07373047 C0.8656342 489.08973019 4.38537813 489.07383335 7.90625 489.0546875 C22.74273632 489.04201492 37.18806787 490.13231667 51.887146 492.11590576 C55.69569797 492.57759003 59.51115513 492.84557174 63.33987427 493.08047485 C68.5281439 493.90257477 72.24674147 496.85103 75.765625 500.58984375 C78.33309495 507.97131986 77.10222785 514.73492381 73.9609375 521.6875 C72.55633069 524.95114525 71.51824963 528.26299022 70.453125 531.65234375 C68.15386732 538.74342115 65.13480645 545.39260106 61.89306641 552.09765625 C59.47690933 557.17064435 57.16278338 562.29148668 54.828125 567.40234375 C53.86075591 569.51566108 52.89331424 571.6289452 51.92578125 573.7421875 C51.20565595 575.31637276 50.48557434 576.89057801 49.765625 578.46484375 C49.105625 578.46484375 48.445625 578.46484375 47.765625 578.46484375 C47.5078125 579.15578125 47.25 579.84671875 46.984375 580.55859375 C40.62196473 595.73049516 29.96738362 608.62298464 18.765625 620.46484375 C17.94707031 621.34785156 17.12851562 622.23085938 16.28515625 623.140625 C0.43020712 639.69815681 -19.25591284 651.11282666 -41.234375 657.46484375 C-42.30429687 657.85542969 -43.37421875 658.24601563 -44.4765625 658.6484375 C-63.1524391 664.88091826 -84.96908071 663.20236169 -103.234375 656.46484375 C-104.23726562 656.14257812 -105.24015625 655.8203125 -106.2734375 655.48828125 C-116.05360051 652.24701685 -125.60330103 647.91620159 -133.296875 641.02734375 C-142.40741555 634.16779933 -155.15613456 636.71529718 -165.78125 638.17578125 C-204.68489962 644.2610376 -237.56959394 661.7548588 -265.234375 689.46484375 C-265.85699219 690.05265625 -266.47960937 690.64046875 -267.12109375 691.24609375 C-275.88311536 699.60897772 -282.90925983 709.42863586 -289.10327148 719.79541016 C-292.3444408 725.08343075 -296.20664051 728.7426339 -302.234375 730.46484375 C-308.04106368 731.11003138 -311.70184476 729.95140548 -316.234375 726.46484375 C-320.66352569 721.68602326 -321.36099546 718.3549868 -321.30029297 711.95239258 C-321.29328369 710.96616158 -321.29328369 710.96616158 -321.28613281 709.96000671 C-321.27563185 708.53098212 -321.26296967 707.10197216 -321.24840927 705.67298317 C-321.22630956 703.39581162 -321.21227542 701.11872454 -321.20071411 698.84147644 C-321.16722997 692.36563581 -321.12626215 685.88993045 -321.06298828 679.41430664 C-321.02482832 675.44914298 -321.00215763 671.48412543 -320.98868179 667.51880455 C-320.98074104 666.02200974 -320.96729972 664.52523168 -320.94775009 663.02854347 C-320.65307446 640.02933242 -326.09500418 617.78548875 -342.15234375 600.46875 C-357.04364155 586.1362251 -376.47638193 576.9498549 -394.546875 567.33984375 C-405.45241869 561.5381462 -415.95321715 555.30982566 -426.234375 548.46484375 C-426.86150391 548.0486377 -427.48863281 547.63243164 -428.13476562 547.20361328 C-438.40013826 540.34983659 -447.88070676 532.81439459 -456.98828125 524.48828125 C-458.76163096 522.89072447 -460.55121482 521.38100883 -462.421875 519.90234375 C-465.33895889 517.37420438 -467.78629693 514.72845361 -470.2734375 511.78515625 C-471.63619795 510.17264688 -473.02938262 508.5855597 -474.4453125 507.01953125 C-486.95869613 492.80529936 -496.43149356 476.09049113 -503.234375 458.46484375 C-503.50830078 457.76391602 -503.78222656 457.06298828 -504.06445312 456.34082031 C-512.49522712 434.30907477 -515.46700054 411.28064559 -515.484375 387.83984375 C-515.48504974 387.0204834 -515.48572449 386.20112305 -515.48641968 385.35693359 C-515.45873736 364.11760687 -512.90734108 343.95274461 -507.234375 323.46484375 C-506.95996582 322.46759277 -506.68555664 321.4703418 -506.40283203 320.44287109 C-495.64374731 282.0277643 -477.64850598 245.74459931 -454.234375 213.46484375 C-453.7511377 212.79759277 -453.26790039 212.1303418 -452.77001953 211.44287109 C-445.97246524 202.1103356 -438.80923651 193.17533043 -431.234375 184.46484375 C-430.62207031 183.75199219 -430.00976562 183.03914062 -429.37890625 182.3046875 C-419.44261251 170.81068501 -409.16710435 159.36520487 -397.59765625 149.48828125 C-395.70217634 147.86537448 -393.83010037 146.22358855 -391.96484375 144.56640625 C-383.06528995 136.69542014 -373.85221363 129.43495881 -364.234375 122.46484375 C-363.56712402 121.97661133 -362.89987305 121.48837891 -362.21240234 120.98535156 C-328.90199861 96.66194244 -290.85300607 74.56973076 -252.109375 60.15234375 C-247.58880653 58.43390848 -243.22028638 56.55399957 -238.859375 54.46484375 C-233.53996408 51.95629446 -228.20208813 50.01038004 -222.61425781 48.22094727 C-219.04688761 47.07759494 -215.56721677 45.84264413 -212.109375 44.40234375 C-207.33677114 42.42966749 -202.46042991 40.94553745 -197.5078125 39.4921875 C-195.08051907 38.73039971 -192.73661178 37.91927926 -190.36328125 37.015625 C-149.50213728 21.46914551 -105.14086049 12.35747924 -62.234375 4.46484375 C-61.48828979 4.32755859 -60.74220459 4.19027344 -59.97351074 4.04882812 C-54.62571442 3.06781958 -49.27508015 2.10338175 -43.921875 1.15234375 C-43.22639557 1.0287851 -42.53091614 0.90522644 -41.81436157 0.77792358 C-7.45139574 -5.29518477 -7.45139574 -5.29518477 0 0 Z " fill="#D6EDB6" transform="translate(879.234375,269.53515625)"/>
<path d="M0 0 C3.48718263 2.89312719 5.29697182 5.33105163 6.28125 9.8125 C6.9596607 17.85166679 4.13155801 24.18442383 1.04516602 31.40136719 C-1.65391679 37.77767613 -3.76054679 44.15128235 -5.546875 50.83984375 C-5.77648926 51.69368652 -6.00610352 52.5475293 -6.24267578 53.42724609 C-9.32073902 65.23737168 -11.68191606 77.10972808 -13.234375 89.21484375 C-13.35894073 90.1837706 -13.35894073 90.1837706 -13.48602295 91.17227173 C-16.68527769 116.40666828 -18.01001238 141.84828823 -19.05938721 167.2492981 C-20.7702394 208.55064382 -24.59079061 249.51821377 -30.234375 290.46484375 C-30.41656342 291.80614426 -30.59869806 293.14745208 -30.78076172 294.48876953 C-40.66268761 365.98977038 -67.51905038 439.00114148 -117.234375 492.46484375 C-118.3635962 493.77371377 -119.4887344 495.08611965 -120.609375 496.40234375 C-127.60597547 504.39845857 -135.14653104 511.64410999 -143.46875 518.24609375 C-145.26226024 519.68495507 -147.02554935 521.1626497 -148.75 522.68359375 C-169.19350738 540.61649496 -193.75848624 553.60301893 -217.83837891 565.91430664 C-234.01897815 574.1886042 -248.30648993 582.5959004 -261.234375 595.46484375 C-262.19730469 596.37556641 -262.19730469 596.37556641 -263.1796875 597.3046875 C-281.10818252 615.69181843 -289.74693676 647.06398374 -290.31640625 672.06640625 C-290.28933594 672.85789062 -290.26226563 673.649375 -290.234375 674.46484375 C-289.23470703 673.33949219 -289.23470703 673.33949219 -288.21484375 672.19140625 C-272.63413194 654.8092908 -254.89872409 641.29341838 -234.234375 630.46484375 C-233.09871094 629.85125 -231.96304687 629.23765625 -230.79296875 628.60546875 C-207.46868941 616.38927609 -177.83975497 606.85058474 -151.234375 608.46484375 C-151.26917969 607.92859375 -151.30398438 607.39234375 -151.33984375 606.83984375 C-152.32703994 578.25816361 -136.69676233 550.52293711 -117.85839844 530.16113281 C-101.46754723 513.04092323 -80.24196914 501.70026739 -57.609375 495.27734375 C-56.78195801 495.03902832 -55.95454102 494.80071289 -55.10205078 494.55517578 C-37.77829416 489.90877014 -20.5170626 488.97764636 -2.65527344 489.07373047 C0.8656342 489.08973019 4.38537813 489.07383335 7.90625 489.0546875 C22.74273632 489.04201492 37.18806787 490.13231667 51.887146 492.11590576 C55.69569797 492.57759003 59.51115513 492.84557174 63.33987427 493.08047485 C68.5281439 493.90257477 72.24674147 496.85103 75.765625 500.58984375 C78.33309495 507.97131986 77.10222785 514.73492381 73.9609375 521.6875 C72.55633069 524.95114525 71.51824963 528.26299022 70.453125 531.65234375 C68.15386732 538.74342115 65.13480645 545.39260106 61.89306641 552.09765625 C59.47690933 557.17064435 57.16278338 562.29148668 54.828125 567.40234375 C53.86075591 569.51566108 52.89331424 571.6289452 51.92578125 573.7421875 C51.20565595 575.31637276 50.48557434 576.89057801 49.765625 578.46484375 C49.105625 578.46484375 48.445625 578.46484375 47.765625 578.46484375 C47.5078125 579.15578125 47.25 579.84671875 46.984375 580.55859375 C40.62196473 595.73049516 29.96738362 608.62298464 18.765625 620.46484375 C17.94707031 621.34785156 17.12851562 622.23085938 16.28515625 623.140625 C0.43020712 639.69815681 -19.25591284 651.11282666 -41.234375 657.46484375 C-42.30429687 657.85542969 -43.37421875 658.24601563 -44.4765625 658.6484375 C-63.1524391 664.88091826 -84.96908071 663.20236169 -103.234375 656.46484375 C-104.23726562 656.14257812 -105.24015625 655.8203125 -106.2734375 655.48828125 C-116.05360051 652.24701685 -125.60330103 647.91620159 -133.296875 641.02734375 C-142.40741555 634.16779933 -155.15613456 636.71529718 -165.78125 638.17578125 C-204.68489962 644.2610376 -237.56959394 661.7548588 -265.234375 689.46484375 C-265.85699219 690.05265625 -266.47960937 690.64046875 -267.12109375 691.24609375 C-275.88311536 699.60897772 -282.90925983 709.42863586 -289.10327148 719.79541016 C-292.3444408 725.08343075 -296.20664051 728.7426339 -302.234375 730.46484375 C-308.04106368 731.11003138 -311.70184476 729.95140548 -316.234375 726.46484375 C-320.66352569 721.68602326 -321.36099546 718.3549868 -321.30029297 711.95239258 C-321.29328369 710.96616158 -321.29328369 710.96616158 -321.28613281 709.96000671 C-321.27563185 708.53098212 -321.26296967 707.10197216 -321.24840927 705.67298317 C-321.22630956 703.39581162 -321.21227542 701.11872454 -321.20071411 698.84147644 C-321.16722997 692.36563581 -321.12626215 685.88993045 -321.06298828 679.41430664 C-321.02482832 675.44914298 -321.00215763 671.48412543 -320.98868179 667.51880455 C-320.98074104 666.02200974 -320.96729972 664.52523168 -320.94775009 663.02854347 C-320.65307446 640.02933242 -326.09500418 617.78548875 -342.15234375 600.46875 C-357.04364155 586.1362251 -376.47638193 576.9498549 -394.546875 567.33984375 C-405.45241869 561.5381462 -415.95321715 555.30982566 -426.234375 548.46484375 C-426.86150391 548.0486377 -427.48863281 547.63243164 -428.13476562 547.20361328 C-438.40013826 540.34983659 -447.88070676 532.81439459 -456.98828125 524.48828125 C-458.76163096 522.89072447 -460.55121482 521.38100883 -462.421875 519.90234375 C-465.33895889 517.37420438 -467.78629693 514.72845361 -470.2734375 511.78515625 C-471.63619795 510.17264688 -473.02938262 508.5855597 -474.4453125 507.01953125 C-486.95869613 492.80529936 -496.43149356 476.09049113 -503.234375 458.46484375 C-503.50830078 457.76391602 -503.78222656 457.06298828 -504.06445312 456.34082031 C-512.49522712 434.30907477 -515.46700054 411.28064559 -515.484375 387.83984375 C-515.48504974 387.0204834 -515.48572449 386.20112305 -515.48641968 385.35693359 C-515.45873736 364.11760687 -512.90734108 343.95274461 -507.234375 323.46484375 C-506.95996582 322.46759277 -506.68555664 321.4703418 -506.40283203 320.44287109 C-495.64374731 282.0277643 -477.64850598 245.74459931 -454.234375 213.46484375 C-453.7511377 212.79759277 -453.26790039 212.1303418 -452.77001953 211.44287109 C-445.97246524 202.1103356 -438.80923651 193.17533043 -431.234375 184.46484375 C-430.62207031 183.75199219 -430.00976562 183.03914062 -429.37890625 182.3046875 C-419.44261251 170.81068501 -409.16710435 159.36520487 -397.59765625 149.48828125 C-395.70217634 147.86537448 -393.83010037 146.22358855 -391.96484375 144.56640625 C-383.06528995 136.69542014 -373.85221363 129.43495881 -364.234375 122.46484375 C-363.56712402 121.97661133 -362.89987305 121.48837891 -362.21240234 120.98535156 C-328.90199861 96.66194244 -290.85300607 74.56973076 -252.109375 60.15234375 C-247.58880653 58.43390848 -243.22028638 56.55399957 -238.859375 54.46484375 C-233.53996408 51.95629446 -228.20208813 50.01038004 -222.61425781 48.22094727 C-219.04688761 47.07759494 -215.56721677 45.84264413 -212.109375 44.40234375 C-207.33677114 42.42966749 -202.46042991 40.94553745 -197.5078125 39.4921875 C-195.08051907 38.73039971 -192.73661178 37.91927926 -190.36328125 37.015625 C-149.50213728 21.46914551 -105.14086049 12.35747924 -62.234375 4.46484375 C-61.48828979 4.32755859 -60.74220459 4.19027344 -59.97351074 4.04882812 C-54.62571442 3.06781958 -49.27508015 2.10338175 -43.921875 1.15234375 C-43.22639557 1.0287851 -42.53091614 0.90522644 -41.81436157 0.77792358 C-7.45139574 -5.29518477 -7.45139574 -5.29518477 0 0 Z M-38.4765625 29.27734375 C-39.52239502 29.46143799 -40.56822754 29.64553223 -41.64575195 29.83520508 C-42.78874756 30.04298584 -43.93174316 30.2507666 -45.109375 30.46484375 C-46.32391357 30.68487061 -47.53845215 30.90489746 -48.78979492 31.1315918 C-75.49286737 36.03949835 -101.95099474 41.60029015 -128.17236328 48.65429688 C-131.97055605 49.65971866 -135.78491696 50.56497127 -139.609375 51.46484375 C-149.73011473 53.96434287 -159.59598057 57.35166975 -169.50195312 60.58105469 C-172.71526025 61.62038383 -175.93894971 62.61340185 -179.171875 63.58984375 C-194.77473431 68.26896359 -194.77473431 68.26896359 -209.82421875 74.42578125 C-212.42003221 75.54488397 -215.06184155 76.46196187 -217.73779297 77.36962891 C-229.54395581 81.37747475 -240.86571415 86.36402798 -252.234375 91.46484375 C-253.26240234 91.92133301 -254.29042969 92.37782227 -255.34960938 92.84814453 C-292.24600269 109.26623895 -327.62626248 129.19537021 -359.234375 154.46484375 C-360.14058594 155.18929687 -361.04679687 155.91375 -361.98046875 156.66015625 C-364.75206107 158.90478399 -367.49420332 161.18199728 -370.234375 163.46484375 C-371.71357422 164.66367187 -371.71357422 164.66367187 -373.22265625 165.88671875 C-381.25733559 172.49303794 -388.67967316 179.69582486 -396.046875 187.02734375 C-396.53474487 187.51003723 -397.02261475 187.99273071 -397.52526855 188.49005127 C-404.22585287 195.13452009 -410.3612373 202.07776123 -416.234375 209.46484375 C-417.21092753 210.63868577 -418.19082775 211.80976067 -419.17578125 212.9765625 C-452.6249256 253.19831201 -477.95742717 304.58819892 -486.234375 356.46484375 C-486.43804687 357.67398437 -486.64171875 358.883125 -486.8515625 360.12890625 C-493.22414174 401.99306523 -484.54719142 446.13612562 -459.61572266 480.62695312 C-455.45504244 486.16276095 -450.90559822 491.35770574 -446.234375 496.46484375 C-445.48542969 497.28597656 -444.73648438 498.10710937 -443.96484375 498.953125 C-423.77282117 520.04423578 -396.52393657 534.41902275 -371.15185547 548.15161133 C-353.74763811 557.58527863 -337.25748985 567.31663739 -322.85546875 581.01953125 C-320.40378725 583.30679298 -317.88012809 585.40756739 -315.234375 587.46484375 C-314.97527344 586.64306641 -314.97527344 586.64306641 -314.7109375 585.8046875 C-310.30102843 573.36388898 -301.72860217 562.41716181 -293.234375 552.46484375 C-292.61949219 551.73910156 -292.00460937 551.01335938 -291.37109375 550.265625 C-286.21380036 544.36728363 -280.69842908 538.82751078 -275.171875 533.27734375 C-274.41600098 532.51679687 -273.66012695 531.75625 -272.88134766 530.97265625 C-268.16102559 526.26568293 -263.31090525 521.78427248 -258.234375 517.46484375 C-257.66404541 516.97814209 -257.09371582 516.49144043 -256.50610352 515.98999023 C-255.40974999 515.05664526 -254.3125149 514.12433473 -253.21435547 513.19311523 C-246.25039757 507.28037851 -239.49970304 501.17227695 -232.82226562 494.93945312 C-230.69908618 492.96774282 -228.5563368 491.01797754 -226.41333008 489.06787109 C-218.89335885 482.21778575 -211.84601572 475.19775687 -205.234375 467.46484375 C-204.39777344 466.50578125 -203.56117188 465.54671875 -202.69921875 464.55859375 C-175.31175833 432.95579922 -154.5738623 392.83286307 -147.234375 351.46484375 C-146.904375 351.13484375 -146.574375 350.80484375 -146.234375 350.46484375 C-145.73367684 347.92515791 -145.28042291 345.39300658 -144.859375 342.83984375 C-143.94887314 337.37683257 -142.92345553 331.95485155 -141.79174805 326.53271484 C-140.28803641 319.13687613 -139.27151886 311.7280429 -138.40234375 304.23046875 C-138.16206035 302.23191352 -137.92176041 300.23336018 -137.68069172 298.23489952 C-137.42977402 296.15001771 -137.18116427 294.06486998 -136.93286133 291.97967529 C-124.42521612 187.25110542 -124.42521612 187.25110542 -103.234375 155.46484375 C-102.244375 155.46484375 -101.254375 155.46484375 -100.234375 155.46484375 C-99.9524031 160.9163005 -100.37808508 165.56837601 -101.62109375 170.890625 C-103.24186368 178.23505276 -104.32744451 185.56439796 -105.234375 193.02734375 C-105.31741882 193.70270172 -105.40046265 194.37805969 -105.48602295 195.07388306 C-108.49483175 219.70427272 -110.14314341 244.43947075 -111.41906738 269.21228027 C-112.07838193 281.99473283 -112.84854504 294.73731334 -114.234375 307.46484375 C-114.34974609 308.55087891 -114.46511719 309.63691406 -114.58398438 310.75585938 C-116.28033845 326.21248665 -118.84421945 341.30076959 -122.234375 356.46484375 C-122.40173157 357.21502777 -122.56908813 357.96521179 -122.74151611 358.73812866 C-125.50421099 371.0219706 -128.32249052 383.34536061 -133.19824219 394.98876953 C-134.34128132 397.72032064 -135.40308233 400.47657389 -136.4609375 403.2421875 C-146.24433547 428.50611014 -158.68233963 451.98511473 -175.98779297 472.94628906 C-177.14157105 474.35179233 -178.26927711 475.77858929 -179.39453125 477.20703125 C-189.95383666 490.50978237 -201.95196797 503.27542269 -214.8359375 514.3515625 C-218.02583823 517.16220793 -221.12708793 520.06348097 -224.234375 522.96484375 C-228.53358851 526.97521975 -232.85233271 530.94428366 -237.3046875 534.78515625 C-239.68418867 536.85638196 -242.02041146 538.97297764 -244.359375 541.08984375 C-247.04832871 543.51937314 -249.74110924 545.92118434 -252.546875 548.21484375 C-256.2789514 551.33937283 -259.52974468 554.40789826 -262.234375 558.46484375 C-258.90349055 557.23246707 -256.14515188 555.85201371 -253.2578125 553.79296875 C-247.94623043 550.1729314 -242.35545586 547.17344344 -236.67578125 544.17425537 C-234.81510874 543.19146266 -232.9580527 542.20209357 -231.1015625 541.21142578 C-225.71569385 538.34187133 -220.31968473 535.49476648 -214.8828125 532.72265625 C-198.26094111 524.22748799 -182.75571778 514.19965859 -168.234375 502.46484375 C-166.77257812 501.30855469 -166.77257812 501.30855469 -165.28125 500.12890625 C-160.19677672 496.05854922 -155.46436352 491.8418755 -150.93359375 487.1640625 C-149.234375 485.46484375 -149.234375 485.46484375 -146.671875 483.46484375 C-143.81660564 481.12205863 -141.55853129 478.51401437 -139.16796875 475.70703125 C-137.18207629 473.40419837 -135.11878704 471.19036952 -133.046875 468.96484375 C-90.65142724 421.81880253 -70.835797 359.55275626 -59.234375 298.46484375 C-58.9544873 297.00401367 -58.9544873 297.00401367 -58.66894531 295.51367188 C-50.37347663 251.1570382 -48.19909504 205.38798789 -46.1652832 160.39306641 C-42.23299896 73.42469875 -42.23299896 73.42469875 -29.3359375 33.9453125 C-28.13379306 30.75548602 -28.13379306 30.75548602 -28.234375 28.46484375 C-31.76143671 28.38239502 -35.00437532 28.6647147 -38.4765625 29.27734375 Z " fill="#313131" transform="translate(879.234375,269.53515625)"/>
<path d="M0 0 C1.30430562 2.60861124 0.76981196 3.44149236 -0.0390625 6.20703125 C-0.41164185 7.52840088 -0.41164185 7.52840088 -0.79174805 8.87646484 C-1.06672119 9.84535645 -1.34169434 10.81424805 -1.625 11.8125 C-11.51001916 48.41105383 -13.04136508 85.87207639 -14.78502655 123.52501488 C-19.2080292 218.9851908 -25.94825987 320.33110573 -108.2734375 441.0625 C-110.13909686 443.03835038 -111.90177423 445.06368319 -113.62109375 447.16796875 C-115.55746932 449.47317776 -117.39460891 451.38766518 -119.6875 453.3125 C-121.84550278 455.14461654 -123.97474207 456.97619646 -126.03515625 458.91796875 C-145.75631402 477.45655269 -168.93465641 490.54616845 -192.84765625 502.82421875 C-211.58400999 512.32756851 -211.58400999 512.32756851 -229 524 C-229.66 523.67 -230.32 523.34 -231 523 C-230.113125 522.278125 -229.22625 521.55625 -228.3125 520.8125 C-225.37006568 518.35590948 -222.68124443 515.74359895 -220 513 C-215.17850429 508.08578322 -210.32146448 503.2989516 -205.09765625 498.8125 C-201.91443618 496.06200817 -198.80594957 493.2297111 -195.6875 490.40625 C-193.53571952 488.47965585 -191.36741822 486.57798313 -189.1875 484.68359375 C-185.04247251 481.06252728 -181.00790456 477.33421666 -177 473.5625 C-176.30011963 472.90435303 -175.60023926 472.24620605 -174.87915039 471.56811523 C-167.55997127 464.6670774 -160.46955641 457.71277341 -154 450 C-153.54496094 449.45875488 -153.08992187 448.91750977 -152.62109375 448.35986328 C-133.431776 425.43451788 -118.48138675 401.19870361 -107.05249023 373.51293945 C-105.7107645 370.30941752 -104.29343452 367.14282202 -102.859375 363.97973633 C-95.97269542 348.11493954 -92.92327483 330.41820341 -89.54541016 313.56518555 C-89.08885441 311.4179021 -88.54489981 309.289451 -87.98046875 307.16796875 C-86.44673894 301.19152729 -85.79981879 295.04549117 -85 288.9375 C-84.835 287.73544922 -84.67 286.53339844 -84.5 285.29492188 C-82.01110804 266.54073205 -80.79651413 247.69347509 -79.7961731 228.81021118 C-75.72443697 153.04281681 -75.72443697 153.04281681 -69.43334961 132.11499023 C-68.86418918 129.33716669 -69.08865079 126.79048772 -69.234375 123.9609375 C-69.27798481 116.8545207 -67.41907855 111.89541212 -64.25 105.625 C-63.75266357 104.59608643 -63.25532715 103.56717285 -62.74291992 102.50708008 C-61.19057558 99.32291486 -59.59982482 96.16053292 -58 93 C-57.52449707 92.0423877 -57.04899414 91.08477539 -56.55908203 90.09814453 C-40.92635691 58.66354438 -22.11920909 27.3496077 0 0 Z " fill="#B0CC89" transform="translate(848,304)"/>
<path d="M0 0 C1.98 0.495 1.98 0.495 4 1 C4.2819719 6.45145675 3.85628992 11.10353226 2.61328125 16.42578125 C0.99251132 23.77020901 -0.09306951 31.09955421 -1 38.5625 C-1.08304382 39.23785797 -1.16608765 39.91321594 -1.25164795 40.60903931 C-4.26045675 65.23942897 -5.90876841 89.974627 -7.18469238 114.74743652 C-7.84400693 127.52988908 -8.61417004 140.27246959 -10 153 C-10.11537109 154.08603516 -10.23074219 155.17207031 -10.34960938 156.29101562 C-12.04596345 171.7476429 -14.60984445 186.83592584 -18 202 C-18.16735657 202.75018402 -18.33471313 203.50036804 -18.50714111 204.27328491 C-21.26983599 216.55712685 -24.08811552 228.88051686 -28.96386719 240.52392578 C-30.10690632 243.25547689 -31.16870733 246.01173014 -32.2265625 248.77734375 C-42.00996047 274.04126639 -54.44796463 297.52027098 -71.75341797 318.48144531 C-72.90719605 319.88694858 -74.03490211 321.31374554 -75.16015625 322.7421875 C-86.01030063 336.41134136 -98.38752543 349.55783744 -111.63671875 360.921875 C-114.81703478 363.71845042 -117.904898 366.60977184 -121 369.5 C-125.29784112 373.50913377 -129.61479235 377.4774876 -134.06640625 381.31640625 C-137.29048686 384.12363603 -140.44305362 387.01040257 -143.60546875 389.88671875 C-145.25305545 391.34078793 -146.94418464 392.7465003 -148.66796875 394.109375 C-151.21110959 396.17115083 -153.0086399 398.41123188 -155 401 C-156.65400583 402.79783243 -158.31612576 404.24587559 -160.25 405.75 C-163.74439007 408.60904642 -166.84351676 411.77775669 -170 415 C-175 420 -175 420 -176.51171875 421.3359375 C-186.99975306 430.96830467 -193.47268668 444.09683479 -199 457 C-199.66 457 -200.32 457 -201 457 C-201.37511719 456.0821875 -201.75023437 455.164375 -202.13671875 454.21875 C-205.89486605 445.14203482 -205.89486605 445.14203482 -211.1171875 436.84375 C-212.44815863 434.06402269 -212.32248515 432.05235947 -212 429 C-203.43175307 409.09142625 -186.82114146 392.78801235 -171.8125 377.6875 C-171.06403809 376.9342041 -170.31557617 376.1809082 -169.54443359 375.40478516 C-164.85806025 370.73289189 -160.03849484 366.28881583 -155 362 C-154.42950928 361.51313721 -153.85901855 361.02627441 -153.27124023 360.5246582 C-152.17503771 359.59148978 -151.07796492 358.6593426 -149.97998047 357.72827148 C-143.55574905 352.27378862 -137.29853037 346.67063819 -131.140625 340.91796875 C-129.1296587 339.03995379 -127.10004644 337.19647004 -125.046875 335.36328125 C-112.04857891 323.73779985 -100.4398214 310.96002564 -90 297 C-88.92492187 295.58460938 -88.92492187 295.58460938 -87.828125 294.140625 C-66.93908781 266.12664489 -51.1236576 231.51516102 -45 197 C-44.67 196.67 -44.34 196.34 -44 196 C-43.49930184 193.46031416 -43.04604791 190.92816283 -42.625 188.375 C-41.71449814 182.91198882 -40.68908053 177.4900078 -39.55737305 172.06787109 C-38.05366141 164.67203238 -37.03714386 157.26319915 -36.16796875 149.765625 C-35.92768535 147.76706977 -35.68738541 145.76851643 -35.44631672 143.77005577 C-35.19539902 141.68517396 -34.94678927 139.60002623 -34.69848633 137.51483154 C-21.53687428 27.31048984 -21.53687428 27.31048984 0 0 Z " fill="#657752" transform="translate(776,424)"/>
<path d="M0 0 C0.99019135 0.00177246 1.98038269 0.00354492 3.00057983 0.00537109 C18.14709457 0.03723108 33.1238356 0.55439155 48.1875 2.25 C38.40724508 33.43798713 22.47175816 64.09134809 -0.8125 87.25 C-1.71742188 88.15492188 -2.62234375 89.05984375 -3.5546875 89.9921875 C-13.55858913 99.53214007 -25.12080246 105.93680904 -37.8125 111.25 C-38.56789063 111.56839844 -39.32328125 111.88679687 -40.1015625 112.21484375 C-57.33825699 118.70281302 -79.1158012 118.31588313 -96.17382812 111.27539062 C-100.8357299 109.14079173 -105.34261248 106.75898318 -109.8125 104.25 C-106.89568189 101.9571229 -103.91519828 100.12062242 -100.65625 98.3515625 C-99.13704956 97.51866699 -99.13704956 97.51866699 -97.5871582 96.66894531 C-96.506521 96.07694336 -95.42588379 95.48494141 -94.3125 94.875 C-74.91707121 84.12670572 -56.09526099 72.09004981 -38.94140625 57.98828125 C-37.62160575 56.91064598 -36.27849674 55.86014486 -34.90234375 54.85546875 C-32.0150124 52.70532838 -30.88948911 51.51689559 -29.875 48 C-29.854375 47.0925 -29.83375 46.185 -29.8125 45.25 C-30.92374646 43.92637866 -30.92374646 43.92637866 -33.734375 43.97265625 C-38.85396853 44.06731945 -43.32712809 45.87571251 -48.0625 47.6875 C-49.0839209 48.07437988 -50.1053418 48.46125977 -51.15771484 48.85986328 C-66.12001246 54.72194928 -80.44417888 62.06675173 -94.80535889 69.24713135 C-96.71033538 70.19895342 -98.61674521 71.14781816 -100.52392578 72.09521484 C-106.62947659 75.12836246 -112.72802164 78.17478674 -118.8125 81.25 C-121.47962044 72.04322285 -114.37566172 60.27937889 -110.078125 52.1796875 C-97.06208098 28.87162268 -74.96153518 13.05689308 -49.60571289 5.73144531 C-32.91554577 1.09124496 -17.23632822 -0.08855715 0 0 Z " fill="#AFCA89" transform="translate(875.8125,786.75)"/>
<path d="M0 0 C0.75250534 0.32952164 1.50501068 0.65904327 2.28031921 0.99855042 C4.69751978 2.06011156 7.10664407 3.13868226 9.515625 4.21875 C12.00949748 5.32394205 14.50473128 6.42602153 16.99998474 7.52809143 C18.64194184 8.2538906 20.28319461 8.98128536 21.92372131 9.71031189 C26.47168929 11.72725451 31.03669495 13.67639733 35.65234375 15.53515625 C36.61366211 15.92574219 37.57498047 16.31632812 38.56542969 16.71875 C40.25417166 17.39899852 41.94847244 18.06570196 43.64941406 18.71484375 C49.06208575 20.926219 52.56508381 23.78119618 55.765625 28.71875 C57.37478603 33.03516908 57.10865859 36.70870664 55.640625 41.03125 C53.21348085 44.51015662 50.5580398 46.8225426 46.765625 48.71875 C34.26499731 50.1339154 21.52215749 41.90500462 10.390625 36.78125 C7.78055238 35.58042181 5.16883157 34.38334653 2.5546875 33.19140625 C1.91549377 32.89924225 1.27630005 32.60707825 0.61773682 32.30606079 C-5.17043475 29.68882677 -11.06619068 27.40055838 -17.01416016 25.17358398 C-22.15579047 22.85068974 -25.96987884 19.96284637 -28.234375 14.71875 C-28.77018092 9.0927878 -28.42343393 5.55732217 -25.234375 0.71875 C-17.24528245 -6.67116061 -9.07142302 -4.12029684 0 0 Z " fill="#323232" transform="translate(289.234375,433.28125)"/>
<path d="M0 0 C4.5373439 1.84569921 6.97581903 3.81551508 10.08203125 7.53125 C14.46137642 12.61940093 19.21995483 17.29129879 24 22 C29.34241872 27.26268113 34.60399122 32.51121088 39.44799805 38.24145508 C41.14527215 40.1646052 42.95227947 41.92258584 44.8125 43.6875 C48.09446819 46.96946819 49.92457519 49.29979179 50.05859375 54.09765625 C49.75350662 59.9927269 48.2570466 62.94095557 44 67 C41.11481031 68.74065163 38.92242876 69.2950307 35.5625 69.3125 C34.82128906 69.32925781 34.08007812 69.34601563 33.31640625 69.36328125 C28.50882275 68.60930947 25.15144517 65.40194313 21.8203125 62.05078125 C21.05589844 61.28443359 20.29148437 60.51808594 19.50390625 59.72851562 C18.32634766 58.53258789 18.32634766 58.53258789 17.125 57.3125 C16.34769531 56.53455078 15.57039063 55.75660156 14.76953125 54.95507812 C11.22325678 51.38198309 7.76088834 47.78047503 4.48046875 43.9609375 C-0.0622496 38.68363796 -5.1063478 33.91342566 -10.12304688 29.09179688 C-10.85201172 28.37701172 -11.58097656 27.66222656 -12.33203125 26.92578125 C-12.98921143 26.29067627 -13.6463916 25.65557129 -14.32348633 25.0012207 C-18.01465968 20.5951412 -18.49004945 16.00088995 -18.390625 10.44140625 C-17.74518028 6.40737677 -15.96141986 4.75480917 -13 2 C-8.71747837 -0.85501442 -5.0244328 -0.5983294 0 0 Z " fill="#333232" transform="translate(351,339)"/>
<path d="M0 0 C7.42374882 -0.16279133 14.84710776 -0.28686871 22.27228546 -0.3626852 C25.72090569 -0.39909022 29.1682976 -0.44839535 32.61621094 -0.52807617 C36.58773662 -0.61927439 40.55877962 -0.65275967 44.53125 -0.68359375 C46.37233337 -0.73778725 46.37233337 -0.73778725 48.25061035 -0.79307556 C54.24634611 -0.79580695 58.11574274 -0.57147091 62.77929688 3.41772461 C66.2959804 6.99761289 67.1967432 9.23138544 67.375 14.25 C67.33584594 17.98921254 67.2224771 20.52050983 64.875 23.5 C57.97243223 29.50223285 51.96353886 29.45519332 43.15625 29.43359375 C41.29256775 29.44145653 41.29256775 29.44145653 39.39123535 29.44947815 C36.09891188 29.45752933 32.80700703 29.45044931 29.51470947 29.43914795 C27.50161754 29.43750132 25.48908923 29.44949173 23.47607422 29.46655273 C19.59836464 29.49723759 15.72156158 29.50063565 11.84375 29.49609375 C10.04822693 29.51294472 10.04822693 29.51294472 8.21643066 29.53013611 C1.85891825 29.47695129 -2.20547909 29.35401166 -7 25 C-10.3858741 21.16267602 -10.50625142 17.36911014 -10.359375 12.44140625 C-9.83198846 8.85861727 -8.3569924 6.69370559 -6 4 C-3 2 -3 2 0 2 C0 1.34 0 0.68 0 0 Z " fill="#353535" transform="translate(258,544)"/>
<path d="M0 0 C5.46184009 4.63232986 8.27696295 9.87624064 9.2890625 16.9609375 C9.69685265 26.68351329 7.5595243 35.14684901 1.25 42.6875 C0.445625 43.326875 -0.35875 43.96625 -1.1875 44.625 C-1.77789063 45.14964844 -2.36828125 45.67429687 -2.9765625 46.21484375 C-7.26454547 48.94975868 -12.30558508 48.29682315 -17.1875 47.625 C-22.8957392 45.34373212 -25.71238686 41.05120957 -28.1875 35.625 C-30.28036339 25.27458039 -30.20857861 16.59219368 -24.97265625 7.234375 C-19.20266048 -1.19966696 -9.45453203 -6.34472376 0 0 Z " fill="#323231" transform="translate(660.1875,577.375)"/>
<path d="M0 0 C5.70721795 4.77813596 8.31058715 9.30556317 9.0234375 16.765625 C9.12313594 26.29679548 7.95717703 33.06361574 2.875 41.125 C-1.56717415 45.44025489 -5.22108888 47.48163395 -11.375 47.75 C-17.27503392 47.4903627 -20.43739049 45.17868406 -24.5 41 C-29.70419357 33.10398218 -30.26198588 25.55282796 -29.3125 16.25 C-27.32404171 8.6107252 -22.73455813 2.3161483 -16 -1.75 C-10.02619796 -3.37001411 -5.47509755 -2.89250437 0 0 Z " fill="#323231" transform="translate(524.3125,564.75)"/>
<path d="M0 0 C4.10439338 1.36813113 5.11913191 2.46893792 7.375 6.125 C7.643125 6.75148438 7.91125 7.37796875 8.1875 8.0234375 C10.81993465 14.15795038 14.51939769 17.00848238 20.375 20.125 C27.63067122 22.54355707 36.36265839 21.8740011 43.44921875 19.1015625 C47.88149587 16.85395747 50.91506626 13.79267188 53.75 9.8125 C56.4681841 7.02959723 56.82042443 6.68051948 60.4375 6.5 C64.375 7.125 64.375 7.125 66.875 8.6875 C68.97748778 12.10404264 68.92031303 14.17148052 68.375 18.125 C63.42575055 27.81728017 55.32890159 33.4245582 45.375 37.125 C44.42109375 37.49238281 43.4671875 37.85976563 42.484375 38.23828125 C31.84382825 41.27270853 19.2762588 39.50689176 9.43359375 34.68359375 C0.63008262 29.52126273 -6.21880531 21.86552167 -9.625 12.125 C-10.25 8.4375 -10.25 8.4375 -9.625 5.125 C-6.49148819 1.45649837 -4.86447322 0.16774046 0 0 Z " fill="#313131" transform="translate(547.625,623.875)"/>
<path d="M0 0 C4.18962747 3.32177607 6.65939037 6.35372011 7.75 11.625 C6.78243828 15.97902773 5.21125196 17.92836769 2 21 C-4.73399398 25.07329234 -11.34492062 24.7466369 -19 24 C-23.91178464 22.56831389 -27.7710998 20.00383625 -31 16 C-32.21762731 12.34711807 -32.39075851 9.84245864 -32 6 C-29.13798561 1.34922662 -26.36870587 -0.89383411 -21.1640625 -2.53125 C-13.99124078 -4.0849298 -6.59896207 -3.25606681 0 0 Z " fill="#B0CB8B" transform="translate(691,640)"/>
<path d="M0 0 C2.04483434 1.54598464 3.37116933 2.99110884 5 5 C5.495 5.495 5.495 5.495 6 6 C6.55869325 10.43291035 6.59727315 13.94328596 4.375 17.875 C-1.6757596 23.28883754 -7.38590501 23.57606486 -15.21875 23.421875 C-21.32937248 22.74011133 -26.50850758 20.69441941 -30.7265625 16.1328125 C-33.03717854 12.26288502 -32.95642858 8.33125516 -32 4 C-24.21289812 -6.96459748 -10.64319664 -5.19667817 0 0 Z " fill="#B0CA8A" transform="translate(484,620)"/>
<path d="M0 0 C0.83496002 0.02361099 1.66992004 0.04722198 2.53018188 0.07154846 C5.17916941 0.1477048 7.82782844 0.23193363 10.4765625 0.31640625 C12.27993221 0.36967512 14.08331762 0.42241513 15.88671875 0.47460938 C20.29187199 0.60325435 24.69674877 0.73913629 29.1015625 0.87890625 C29.1015625 1.20890625 29.1015625 1.53890625 29.1015625 1.87890625 C13.2615625 2.20890625 -2.5784375 2.53890625 -18.8984375 2.87890625 C-12.56526531 -0.28767985 -6.90425833 -0.23325256 0 0 Z " fill="#4A5342" transform="translate(861.8984375,785.12109375)"/>
<path d="M0 0 C0 3.54404336 -0.60989485 4.10267905 -2.875 6.6875 C-3.40867187 7.31011719 -3.94234375 7.93273437 -4.4921875 8.57421875 C-6 10 -6 10 -8 10 C-8.226875 10.61875 -8.45375 11.2375 -8.6875 11.875 C-10.37929835 14.61410209 -11.99244161 15.05024472 -15 16 C-10.30233025 10.33870569 -5.25276628 5.14771096 0 0 Z " fill="#3C3C3C" transform="translate(475,425)"/>
<path d="M0 0 C0 0.99 0 1.98 0 3 C-4.62 3.33 -9.24 3.66 -14 4 C-12 1 -12 1 -9.25 0.3125 C-6.13994266 0.01345603 -3.12201686 -0.07433373 0 0 Z M-18 4 C-14 5 -14 5 -14 5 Z " fill="#3B3B3B" transform="translate(851,760)"/>
<path d="M0 0 C0 0.66 0 1.32 0 2 C-1.76949612 2.50471197 -3.54065223 3.00360685 -5.3125 3.5 C-6.79169922 3.91765625 -6.79169922 3.91765625 -8.30078125 4.34375 C-11 5 -11 5 -14 5 C-14 4.01 -14 3.02 -14 2 C-12.23225581 1.46877637 -10.46065917 0.95035927 -8.6875 0.4375 C-7.70136719 0.14746094 -6.71523438 -0.14257812 -5.69921875 -0.44140625 C-3 -1 -3 -1 0 0 Z " fill="#373936" transform="translate(759,315)"/>
<path d="M0 0 C5.02230086 1.47221435 7.80278222 4.4489651 11.3125 8.125 C12.13717773 8.96998047 12.13717773 8.96998047 12.97851562 9.83203125 C14.32595438 11.21462058 15.66394273 12.60640916 17 14 C16.67 14.99 16.34 15.98 16 17 C15.26394531 16.19175781 14.52789063 15.38351562 13.76953125 14.55078125 C12.78391591 13.47129779 11.79823535 12.39187388 10.8125 11.3125 C10.32974609 10.78205078 9.84699219 10.25160156 9.34960938 9.70507812 C6.312614 6.38272748 3.2063098 3.15941679 0 0 Z " fill="#292B29" transform="translate(546,842)"/>
<path d="M0 0 C-0.99 0 -1.98 0 -3 0 C-3 0.66 -3 1.32 -3 2 C-8.24385089 3.7479503 -12.47322267 4.19392201 -18 4 C-15.07089056 2.04726038 -12.91867709 1.24603637 -9.5625 0.3125 C-8.61503906 0.04050781 -7.66757812 -0.23148437 -6.69140625 -0.51171875 C-4.01081763 -0.99803744 -2.53712417 -0.89369149 0 0 Z " fill="#555656" transform="translate(737,294)"/>
<path d="M0 0 C-3.70416126 2.37590142 -6.92984573 2.20500286 -11.25 2.125 C-12.51328125 2.10695313 -13.7765625 2.08890625 -15.078125 2.0703125 C-16.04234375 2.04710937 -17.0065625 2.02390625 -18 2 C-11.70963342 -1.23090107 -6.87120554 -0.97304654 0 0 Z " fill="#CCE0AF" transform="translate(812,307)"/>
<path d="M0 0 C0 0.33 0 0.66 0 1 C-1.65 1.33 -3.3 1.66 -5 2 C-5 2.33 -5 2.66 -5 3 C-6.58129029 3.22331199 -8.16521089 3.42804644 -9.75 3.625 C-11.07257812 3.79902344 -11.07257812 3.79902344 -12.421875 3.9765625 C-15.22859878 4.00207817 -16.63384866 3.44843844 -19 2 C-12.56971459 0.67611771 -6.5705166 -0.24794402 0 0 Z " fill="#4F4F4F" transform="translate(717,879)"/>
<path d="M0 0 C0.33 0 0.66 0 1 0 C1.10808032 7.09727428 0.93854006 13.96094956 0 21 C-0.33 21 -0.66 21 -1 21 C-1.19393875 18.85473901 -1.37998676 16.70876323 -1.5625 14.5625 C-1.71912109 12.77005859 -1.71912109 12.77005859 -1.87890625 10.94140625 C-1.91886719 9.97074219 -1.95882812 9.00007812 -2 8 C-1.67 7.67 -1.34 7.34 -1 7 C-0.63239269 4.67182036 -0.29758419 2.3381615 0 0 Z " fill="#74875D" transform="translate(767,542)"/>
<path d="M0 0 C-0.99 0 -1.98 0 -3 0 C-3 0.66 -3 1.32 -3 2 C-11.42857143 4.42857143 -11.42857143 4.42857143 -16 3 C-11.08294543 0.13171817 -5.53605896 -1.7423757 0 0 Z " fill="#494949" transform="translate(765,287)"/>
<path d="M0 0 C0.99 0.66 1.98 1.32 3 2 C0 4 0 4 -4 4 C-4 4.66 -4 5.32 -4 6 C-5.875 6.625 -5.875 6.625 -8 7 C-8.66 6.34 -9.32 5.68 -10 5 C-6.7 3.35 -3.4 1.7 0 0 Z " fill="#383938" transform="translate(578,353)"/>
<path d="M0 0 C-2 2 -2 2 -5.125 2.125 C-6.07375 2.08375 -7.0225 2.0425 -8 2 C-8 2.66 -8 3.32 -8 4 C-10.86724686 3.42655063 -11.8614515 3.1385485 -14 1 C-12.41913952 0.63495397 -10.83516093 0.28339494 -9.25 -0.0625 C-8.36828125 -0.25972656 -7.4865625 -0.45695312 -6.578125 -0.66015625 C-4.01320972 -0.99825872 -2.42908361 -0.81158635 0 0 Z " fill="#505050" transform="translate(827,274)"/>
<path d="M0 0 C-0.33 0.99 -0.66 1.98 -1 3 C-2.258125 3.04125 -3.51625 3.0825 -4.8125 3.125 C-5.52019531 3.14820313 -6.22789062 3.17140625 -6.95703125 3.1953125 C-9 3 -9 3 -12 1 C-8.0186217 -0.3271261 -4.14954773 -0.06915913 0 0 Z " fill="#40433D" transform="translate(656,575)"/>
<path d="M0 0 C0.66 0.33 1.32 0.66 2 1 C1 4 1 4 -2.375 5.75 C-6 7 -6 7 -9 6 C-6.03 4.02 -3.06 2.04 0 0 Z " fill="#3F3F40" transform="translate(637,904)"/>
<path d="M0 0 C0.33 0.99 0.66 1.98 1 3 C-4.078125 6.3203125 -4.078125 6.3203125 -6 7 C-7.32 6.34 -8.64 5.68 -10 5 C-6.7 3.35 -3.4 1.7 0 0 Z " fill="#373737" transform="translate(649,898)"/>
<path d="M0 0 C-1.32 0.33 -2.64 0.66 -4 1 C-4 1.99 -4 2.98 -4 4 C-7.87493656 5.07637127 -9.52452927 4.94566951 -13 3 C-11.21189234 2.30329584 -9.41937948 1.61788811 -7.625 0.9375 C-6.62726562 0.55464844 -5.62953125 0.17179687 -4.6015625 -0.22265625 C-2 -1 -2 -1 0 0 Z " fill="#575858" transform="translate(660,318)"/>
<path d="M0 0 C5.28 0 10.56 0 16 0 C16 0.33 16 0.66 16 1 C12.7 1.33 9.4 1.66 6 2 C6 2.33 6 2.66 6 3 C4.02 3 2.04 3 0 3 C0 2.01 0 1.02 0 0 Z " fill="#545555" transform="translate(892,759)"/>
<path d="M0 0 C1.1875 1.5625 1.1875 1.5625 2 4 C0.625 7.75 0.625 7.75 -1 11 C-1.99 11 -2.98 11 -4 11 C-2.7874262 7.27566618 -1.49140021 3.62197194 0 0 Z " fill="#6D7E5C" transform="translate(771,431)"/>
<path d="M0 0 C0.66 0.99 1.32 1.98 2 3 C1.04837615 7.56779449 -0.22314695 9.41015791 -4 12 C-3.52309796 10.37433394 -3.04340334 8.74948689 -2.5625 7.125 C-2.29566406 6.22007812 -2.02882813 5.31515625 -1.75390625 4.3828125 C-1 2 -1 2 0 0 Z " fill="#E8E7E8" transform="translate(955,784)"/>
<path d="M0 0 C1.32 0.33 2.64 0.66 4 1 C3.195625 1.61875 2.39125 2.2375 1.5625 2.875 C-1.03874519 4.74164041 -1.03874519 4.74164041 -2 7 C-2.99 6.67 -3.98 6.34 -5 6 C-3.35 4.02 -1.7 2.04 0 0 Z " fill="#373935" transform="translate(730,754)"/>
<path d="M0 0 C0.33 0.66 0.66 1.32 1 2 C0.14453125 3.91015625 0.14453125 3.91015625 -1.1875 6.0625 C-1.82751953 7.13177734 -1.82751953 7.13177734 -2.48046875 8.22265625 C-4.25241746 10.29524408 -5.34385824 10.63030147 -8 11 C-7.59007812 10.45730469 -7.18015625 9.91460938 -6.7578125 9.35546875 C-6.21898437 8.64003906 -5.68015625 7.92460938 -5.125 7.1875 C-4.59132813 6.47980469 -4.05765625 5.77210938 -3.5078125 5.04296875 C-2.29185219 3.39543703 -1.13583859 1.70375789 0 0 Z " fill="#E2E2E3" transform="translate(777,743)"/>
<path d="M0 0 C1.48828125 1.14453125 1.48828125 1.14453125 3 3 C3.29296875 5.69921875 3.29296875 5.69921875 3.1875 8.6875 C3.16042969 9.68136719 3.13335937 10.67523437 3.10546875 11.69921875 C3.07066406 12.45847656 3.03585937 13.21773437 3 14 C2.67 14 2.34 14 2 14 C1.67 12.02 1.34 10.04 1 8 C0.67 8 0.34 8 0 8 C0 5.36 0 2.72 0 0 Z " fill="#393939" transform="translate(364,667)"/>
<path d="M0 0 C0.33 1.32 0.66 2.64 1 4 C-0.65 5.32 -2.3 6.64 -4 8 C-4.33 7.01 -4.66 6.02 -5 5 C-3.35 3.35 -1.7 1.7 0 0 Z " fill="#3D3E3D" transform="translate(597,935)"/>
<path d="M0 0 C0 0.99 0 1.98 0 3 C-3.47325181 4.1577506 -6.36067448 4.06866652 -10 4 C-6.86268382 1.90845588 -3.85464592 0 0 0 Z " fill="#C6DAAB" transform="translate(665,346)"/>
<path d="M0 0 C0.99 0.66 1.98 1.32 3 2 C0.6875 4.0625 0.6875 4.0625 -2 6 C-2.99 5.67 -3.98 5.34 -5 5 C-3.35 3.35 -1.7 1.7 0 0 Z " fill="#3C3C3C" transform="translate(765,796)"/>
<path d="M0 0 C0 0.99 0 1.98 0 3 C-1.98 3.66 -3.96 4.32 -6 5 C-6.66 4.34 -7.32 3.68 -8 3 C-2.25 0 -2.25 0 0 0 Z " fill="#3E3F3F" transform="translate(801,773)"/>
<path d="M0 0 C1.670625 0.061875 1.670625 0.061875 3.375 0.125 C3.375 0.455 3.375 0.785 3.375 1.125 C2.488125 1.393125 1.60125 1.66125 0.6875 1.9375 C-2.39377548 3.04210819 -4.88721405 4.35349144 -7.625 6.125 C-4.84462617 0.16705607 -4.84462617 0.16705607 0 0 Z " fill="#262726" transform="translate(607.625,630.875)"/>
<path d="M0 0 C1.19882812 0.15275391 1.19882812 0.15275391 2.421875 0.30859375 C3.02515625 0.39238281 3.6284375 0.47617187 4.25 0.5625 C4.25 0.8925 4.25 1.2225 4.25 1.5625 C2.83566794 1.7861337 1.41832382 1.99076476 0 2.1875 C-0.78890625 2.30351563 -1.5778125 2.41953125 -2.390625 2.5390625 C-5.07152459 2.56569395 -6.47694089 1.92842084 -8.75 0.5625 C-5.62819599 -0.40411363 -3.22916205 -0.42738909 0 0 Z " fill="#444444" transform="translate(786.75,925.4375)"/>
<path d="M0 0 C0.66 0 1.32 0 2 0 C2.33 2.97 2.66 5.94 3 9 C2.34 9 1.68 9 1 9 C0.67 6.03 0.34 3.06 0 0 Z " fill="#3D3D3D" transform="translate(343,462)"/>
<path d="M0 0 C0.79921875 0.00902344 1.5984375 0.01804687 2.421875 0.02734375 C3.02515625 0.03894531 3.6284375 0.05054688 4.25 0.0625 C1.21964345 1.62904025 -1.32105498 2.7196055 -4.75 3.0625 C-7.0625 2.125 -7.0625 2.125 -8.75 1.0625 C-5.75519083 0.1901588 -3.11424089 -0.04579766 0 0 Z " fill="#444444" transform="translate(773.75,283.9375)"/>
<path d="M0 0 C0.66 0.33 1.32 0.66 2 1 C0.68 3.31 -0.64 5.62 -2 8 C-2.99 7.67 -3.98 7.34 -5 7 C-3.35 4.69 -1.7 2.38 0 0 Z " fill="#E9E9E9" transform="translate(790,725)"/>
<path d="M0 0 C0.66 0 1.32 0 2 0 C2 0.66 2 1.32 2 2 C2.66 2 3.32 2 4 2 C5.625 3.375 5.625 3.375 7 5 C7 5.66 7 6.32 7 7 C4.50638429 5.79618552 2.31856917 4.54571278 0 3 C0 2.01 0 1.02 0 0 Z " fill="#3A3A3A" transform="translate(264,450)"/>
<path d="M0 0 C0.66 0.33 1.32 0.66 2 1 C1.34 2.65 0.68 4.3 0 6 C-0.99 6 -1.98 6 -3 6 C-1.125 1.125 -1.125 1.125 0 0 Z " fill="#383838" transform="translate(751,812)"/>
<path d="M0 0 C0.33 0 0.66 0 1 0 C1.36923077 6.52307692 1.36923077 6.52307692 -0.5 8.9375 C-0.995 9.288125 -1.49 9.63875 -2 10 C-2.25 3.375 -2.25 3.375 0 0 Z " fill="#393939" transform="translate(854,505)"/>
<path d="M0 0 C0.66 0.66 1.32 1.32 2 2 C0.02 3.32 -1.96 4.64 -4 6 C-4.66 5.34 -5.32 4.68 -6 4 C-4.02 2.68 -2.04 1.36 0 0 Z " fill="#383838" transform="translate(529,382)"/>
<path d="M0 0 C1.65 0.33 3.3 0.66 5 1 C2.4345406 3.5654594 0.52313332 3.54046087 -3 4 C-3 3.34 -3 2.68 -3 2 C-2.01 2 -1.02 2 0 2 C0 1.34 0 0.68 0 0 Z " fill="#43473F" transform="translate(689,334)"/>
</svg>
